# xmcd CD database file
#
# Track frame offsets:
#	150
#	19337
#	36925
#	51569
#	68663
#	89526
#	102628
#	114847
#	129237
#	147129
#	159210
#	173486
#	184132
#	199517
#	217062
#
# Disc length: 3062 seconds
#
# Revision: 0
# Processed by: cddbd v1.5.2PL0 Copyright (c) Steve Scherf et al.
# Submitted via: CDex 1.70beta2
#
DISCID=d00bf40f
DTITLE=Neti Vaan - Toonzville
DYEAR=1900
DGENRE=Jazz
TTITLE0=Beaumont Ragg
TTITLE1=Desert Whispers
TTITLE2=Maiden's Prayer
TTITLE3=Toonzville
TTITLE4=Adios a Ocumare
TTITLE5=Jesusita en Chihuahua
TTITLE6=Waltz for Ernestine
TTITLE7=Ducks and Bunnies
TTITLE8=Musette for Anette
TTITLE9=One Step de McGee
TTITLE10=Eleanor Plunkett
TTITLE11=Lime Rock
TTITLE12=Nuits de Port Domino
TTITLE13=Reel de Beatrice
TTITLE14=Texas Wedding Waltz
EXTD=
EXTT0=
EXTT1=
EXTT2=
EXTT3=
EXTT4=
EXTT5=
EXTT6=
EXTT7=
EXTT8=
EXTT9=
EXTT10=
EXTT11=
EXTT12=
EXTT13=
EXTT14=
PLAYORDER=
